/* XPM */
static char *xpm_[] = {
/* columns rows colors chars-per-pixel */
"42 42 256 2 ",
"   c black",
".  c #010101",
"X  c #020202",
"o  c gray1",
"O  c #040404",
"+  c gray2",
"@  c #060606",
"#  c #070707",
"$  c gray3",
"%  c #090909",
"&  c gray4",
"*  c #0B0B0B",
"=  c #0C0C0C",
"-  c gray5",
";  c #0E0E0E",
":  c gray6",
">  c #101010",
",  c #111111",
"<  c gray7",
"1  c #131313",
"2  c gray8",
"3  c #151515",
"4  c #161616",
"5  c gray9",
"6  c #181818",
"7  c #191919",
"8  c gray10",
"9  c #1B1B1B",
"0  c gray11",
"q  c #1D1D1D",
"w  c #1E1E1E",
"e  c gray12",
"r  c #202020",
"t  c gray13",
"y  c #222222",
"u  c #232323",
"i  c gray14",
"p  c #252525",
"a  c gray15",
"s  c #272727",
"d  c #282828",
"f  c gray16",
"g  c #2A2A2A",
"h  c gray17",
"j  c #2C2C2C",
"k  c #2D2D2D",
"l  c gray18",
"z  c #2F2F2F",
"x  c gray19",
"c  c #313131",
"v  c #323232",
"b  c gray20",
"n  c #343434",
"m  c #353535",
"M  c gray21",
"N  c #373737",
"B  c gray22",
"V  c #393939",
"C  c #3A3A3A",
"Z  c gray23",
"A  c #3C3C3C",
"S  c gray24",
"D  c #3E3E3E",
"F  c #3F3F3F",
"G  c gray25",
"H  c #414141",
"J  c gray26",
"K  c #434343",
"L  c #444444",
"P  c gray27",
"I  c #464646",
"U  c gray28",
"Y  c #484848",
"T  c #494949",
"R  c gray29",
"E  c #4B4B4B",
"W  c #4C4C4C",
"Q  c gray30",
"!  c #4E4E4E",
"~  c gray31",
"^  c #505050",
"/  c #515151",
"(  c gray32",
")  c #535353",
"_  c gray33",
"`  c #555555",
"'  c #565656",
"]  c gray34",
"[  c #585858",
"{  c gray35",
"}  c #5A5A5A",
"|  c #5B5B5B",
" . c gray36",
".. c #5D5D5D",
"X. c gray37",
"o. c #5F5F5F",
"O. c #606060",
"+. c gray38",
"@. c #626262",
"#. c gray39",
"$. c #646464",
"%. c #656565",
"&. c gray40",
"*. c #676767",
"=. c #686868",
"-. c DimGray",
";. c #6A6A6A",
":. c gray42",
">. c #6C6C6C",
",. c #6D6D6D",
"<. c gray43",
"1. c #6F6F6F",
"2. c gray44",
"3. c #717171",
"4. c #727272",
"5. c gray45",
"6. c #747474",
"7. c gray46",
"8. c #767676",
"9. c #777777",
"0. c gray47",
"q. c #797979",
"w. c gray48",
"e. c #7B7B7B",
"r. c #7C7C7C",
"t. c gray49",
"y. c #7E7E7E",
"u. c gray50",
"i. c #808080",
"p. c #818181",
"a. c gray51",
"s. c #838383",
"d. c #848484",
"f. c gray52",
"g. c #868686",
"h. c gray53",
"j. c #888888",
"k. c #898989",
"l. c gray54",
"z. c #8B8B8B",
"x. c gray55",
"c. c #8D8D8D",
"v. c #8E8E8E",
"b. c gray56",
"n. c #909090",
"m. c gray57",
"M. c #929292",
"N. c #939393",
"B. c gray58",
"V. c #959595",
"C. c gray59",
"Z. c #979797",
"A. c #989898",
"S. c gray60",
"D. c #9A9A9A",
"F. c #9B9B9B",
"G. c gray61",
"H. c #9D9D9D",
"J. c gray62",
"K. c #9F9F9F",
"L. c #A0A0A0",
"P. c gray63",
"I. c #A2A2A2",
"U. c gray64",
"Y. c #A4A4A4",
"T. c #A5A5A5",
"R. c gray65",
"E. c #A7A7A7",
"W. c gray66",
"Q. c #A9A9A9",
"!. c #AAAAAA",
"~. c gray67",
"^. c #ACACAC",
"/. c gray68",
"(. c #AEAEAE",
"). c #AFAFAF",
"_. c gray69",
"`. c #B1B1B1",
"'. c #B2B2B2",
"]. c gray70",
"[. c #B4B4B4",
"{. c gray71",
"}. c #B6B6B6",
"|. c #B7B7B7",
" X c gray72",
".X c #B9B9B9",
"XX c gray73",
"oX c #BBBBBB",
"OX c #BCBCBC",
"+X c gray74",
"@X c gray",
"#X c gray75",
"$X c #C0C0C0",
"%X c #C1C1C1",
"&X c gray76",
"*X c #C3C3C3",
"=X c gray77",
"-X c #C5C5C5",
";X c #C6C6C6",
":X c gray78",
">X c #C8C8C8",
",X c gray79",
"<X c #CACACA",
"1X c #CBCBCB",
"2X c gray80",
"3X c #CDCDCD",
"4X c #CECECE",
"5X c gray81",
"6X c #D0D0D0",
"7X c gray82",
"8X c #D2D2D2",
"9X c LightGray",
"0X c gray83",
"qX c #D5D5D5",
"wX c gray84",
"eX c #D7D7D7",
"rX c #D8D8D8",
"tX c gray85",
"yX c #DADADA",
"uX c gray86",
"iX c gainsboro",
"pX c #DDDDDD",
"aX c gray87",
"sX c #DFDFDF",
"dX c gray88",
"fX c #E1E1E1",
"gX c #E2E2E2",
"hX c gray89",
"jX c #E4E4E4",
"kX c gray90",
"lX c #E6E6E6",
"zX c #E7E7E7",
"xX c gray91",
"cX c #E9E9E9",
"vX c #EAEAEA",
"bX c gray92",
"nX c #ECECEC",
"mX c gray93",
"MX c #EEEEEE",
"NX c #EFEFEF",
"BX c gray94",
"VX c #F1F1F1",
"CX c gray95",
"ZX c #F3F3F3",
"AX c #F4F4F4",
"SX c gray96",
"DX c #F6F6F6",
"FX c gray97",
"GX c #F8F8F8",
"HX c #F9F9F9",
"JX c gray98",
"KX c #FBFBFB",
"LX c gray99",
"PX c #FDFDFD",
"IX c #FEFEFE",
"UX c white",
/* pixels */
"GXGXGXGXGXGXGXGXGXGXGXGXGXGXGXGXGXGXGXGXGXGXHXGXHXPXHXJXHXGXHXFXGXFXHXJXDXDXLXHXDXKX",
"PXHXIXUXUXUXUXUXUXUXUXUXUXUXUXUXUXJXHXLXHXLXJXGXGXJXGXHXGXGXGXGXGXGXGXHXFXFXHXGXFXHX",
"JXJX;XV.V.C.m.N.B.M.N.N.M.M.B.V.A.iXIXGXHXPXJXGXGXGXGXGXGXGXGXGXGXGXGXGXGXGXGXGXGXGX",
"ZXLX6.  ; = 0 w 0 y h h l a 5 : : v.kXSXHXJXHXGXGXGXGXGXGXGXGXGXGXGXGXGXGXGXGXGXGXGX",
"GXUX6.1 ^ P k.A.n.T.yXsXhXOXw.` U w s.UXPXHXGXGXGXGXGXGXGXGXGXGXGXGXGXGXGXGXGXGXGXGX",
"DXIX3.  q 8 N C v B ! E R A p 9 3   7.UXFXHXGXGXGXGXGXGXGXGXGXGXGXGXGXGXGXGXGXGXGXGX",
"GXKXOXQ         0 M X [ 6.6.>.Q Y b _ Q.SXKXHXGXGXGXGXGXGXGXGXGXGXGXGXGXGXGXGXGXGXGX",
"KXLXxXH.x * f 5 U j.2 U.7X5XOXs.t. .9 J GXPXHXGXGXGXGXGXGXGXGXGXGXGXGXGXGXGXGXGXGXGX",
"FXPX8.' ,X0 ].%.N a.5 4 8 4 < 4 3 > X P vXGXGXGXGXGXGXGXGXGXGXGXGXGXGXGXGXGXGXGXGXGX",
"SXUX1.^ aXt 2X<.v G.t.0.p.J d }.d.u.#.C ` lXLXGXGXGXGXGXGXGXGXGXGXGXGXGXGXGXGXGXGXGX",
"SXY.x u *.* | o.>.Q.K.o.b.%.0 9._ ) J 3 5 pXPXGXGXGXGXGXGXGXGXGXGXGXGXGXGXGXGXGXGXGX",
"SXJ % f a f a :.W.Q.C.S q.@.= A G x w & w aXPXGXHXJXGXGXGXGXGXGXGXHXHXFXHXGXGXJXLXJX",
"CXK U H.Z.c.V.N.D.R.n.m.H.) c yXgX!.,.x e fXUXHXJXPXFXFXGXFXDXHXGXKXHXDXKXFXGXVXNXPX",
"DXH Q ~.c.x t 0 ' b.d p p > % n n s 0 = q iXUXJXZXZXLXNXDXJXZXFXLXZXAXKXAXAXUXD.-.LX",
"DX!.X.H V   o.M D s.* w E w.V.c.c.2.E y i xXUXUXLXGXPXFXZXSXHXHXLXSXDXLXJXPXU.j H DX",
"GXUXL.i o T rX2.A p.< f O.Z.}.[.|.m.X.h 0 F.Q.E.<XUXPXUXDXAXLXKXJXHXJXPXGXXXv   T CX",
"PXJXLXR.B fXUX*.N s.: % < 8 t y 7 5 , # O 0 r = Q pXuXAXUXKXDXHXGXDXKXGX:Xf X   U VX",
"KXHXIXMX0XKXHX&.F g.7 n 7.).5X2XN.g.:.v 0 oXwX..O s n 1XUXLXKXLXDXDXIX3Xm $     T ZX",
"KXFXJX1X>.O... .( v o 5 Z | :.*.T J b n <.,X9Xm.2.q.O K #XUXGXHXKXLXUX>X$   o   K GX",
"FXKXUXI.X v B w.$.: ` P < + 4 > 2 7 @ 1 +.$.b.U.+X5X%.# x.UXUXUXUX;XU.q.      t j.LX",
"ZXdXAX{.c k.n.N.{ x -XH.c q ^ _ | ! b t p p u.Y.K._.rXc 2.iXiXuXtX_ = u y u q f.KXUX",
"DX{ z.AX[.a 3 6 : & t 7 @ r $.F.B.c -.pXrXuX[.J.K.D.@.2 > u u u y @ X.sX0XrXiXbXLXUX",
"ZXC e o.E O   | &.y N.q 3 [ C.S.Y r.|.,X>X;X^.P.I.m.! = _ K.K.S.F.G.<XUXPXIXUXPXHXJX",
"SXn.u       I 2XR.q h.4 { E.!.b., _.fXG.F.P.T.R.Y.M.) - B.UXUXUXUXUXPXGXGXGXGXGXGXGX",
"HXUXx.a c m 2XmXt.+ d f W.8XK.Z.x N.&XL.D.E.m.V.T.B./ : 8.lXGXPXHXGXGXGXGXGXGXGXGXGX",
"GXHXbXfXkXiXSXd.1 M wXkX&XI.F.P.d.D | I.L.C.c } R.c.[ 2 O 1.UXDXFXGXGXGXGXGXGXGXGXGX",
"KXHXKXUXbX} H s.(.^.,X$X~.d.( Z M.} l x k f + ) E.J.l.W % ' JXKXHXGXGXGXGXGXGXGXGXGX",
"SXFXUXaXd.;.#./.fX<XE.K.x.' e d 2.I % 4 -.1.6 ! W.W.Y.#.4 { HXLXHXGXGXGXGXGXGXGXGXGX",
"CXGXlXb.J qXmX;XW.I.b.M.O.q & Z B n c 3.BX:XW +.C.y.c.E *  .LXJXGXGXGXGXGXGXGXGXGXGX",
"PXUXe.m A.W.}.U.N.l.o.^ d - - 2 6 Z.kXbX1Xm 2.P.<.q ^ q   %.UXJXGXGXGXGXGXGXGXGXGXGX",
"GXUX<.g P.K.T.{ F ..3 % e.#X}.+X}.jXUX1XY ;.C -.K.<.5   =.iXPXPXHXGXGXGXGXGXGXGXGXGX",
"HXUX2.z V.] m.S   N 0.0.7XUXUXUXIXIXUX`.2 N.:.Q ^ [ q.t.<XUXPXLXHXGXGXGXGXGXGXGXGXGX",
"LXUX2.q X.$ _ ] N #.FXUXKXLXPXLXHXJXUX).> *.t.b + } ZXUXJXFXPXGXGXGXGXGXGXGXGXGXGXGX",
"GXUXy.- 7 < 1 M.ZXBXSXGXFXFXHXHXSXFXUX X4 5 8 ; [ NXGXDXGXHXHXFXGXGXGXGXGXGXGXGXGXGX",
"GXHXiX%X=X-X=XhXPXKXGXKXHXHXHXFXHXLXKXvX,X$X@X&XtXHXKXHXDXFXHXHXGXGXGXGXGXGXGXGXGXGX",
"GXGXPXUXUXUXUXKXGXJXHXFXGXHXHXGXJXGXDXHXUXUXUXUXIXFXFXGXFXFXHXJXGXGXGXGXGXGXGXGXGXGX",
"GXGXJXJXHXGXFXGXHXGXFXDXFXGXGXHXJXDXFXHXGXKXJXGXHXJXDXHXGXFXGXHXGXGXGXGXGXGXGXGXGXGX",
"GXGXGXJXPXPXHXJXHXDXDXJXGXDXFXGXPXLXLXLXLXGXFXJXPXPXLXPXHXDXFXFXGXGXGXGXGXGXGXGXGXGX",
"GXGXHXJXKXHXJXHXGXHXGXHXJXFXDXPXLXHXGXGXFXSXAXDXGXGXFXJXPXJXSXGXGXGXGXGXGXGXGXGXGXGX",
"GXGXGXHXHXFXFXGXGXGXFXFXFXGXHXSXHXHXJXKXFXJXKXHXHXKXGXHXFXFXJXDXGXGXGXGXGXGXGXGXGXGX",
"GXGXGXFXFXFXGXFXFXFXFXDXAXGXJXCXGXGXHXJXGXJXLXJXHXKXGXHXSXDXKXDXFXGXGXGXGXGXGXGXGXGX",
"GXGXHXGXDXFXLXDXZXGXGXDXSXSXDXFXJXFXAXSXFXAXSXFXFXSXDXJXHXFXFXFXGXGXGXGXGXGXGXGXGXGX"
};
