/* XPM */
static char *xpm_[] = {
/* columns rows colors chars-per-pixel */
"42 42 132 2 ",
"   c #000000",
".  c #090708",
"X  c #0C0C0C",
"o  c #100E0F",
"O  c #0F100F",
"+  c #110F10",
"@  c #121212",
"#  c #181719",
"$  c #1C1C1C",
"%  c #252424",
"&  c #2C2B2C",
"*  c #302F2F",
"=  c #2F2E30",
"-  c #332F32",
";  c #343233",
":  c #383637",
">  c #393739",
",  c #3D3B3C",
"<  c #403F3F",
"1  c #40403F",
"2  c #403E40",
"3  c #464446",
"4  c #484647",
"5  c #484749",
"6  c #4C4A4C",
"7  c #4F4D50",
"8  c #514E52",
"9  c #555555",
"0  c #585657",
"q  c #575558",
"w  c #595558",
"e  c #5D5C5D",
"r  c #615F60",
"t  c #656365",
"y  c #686667",
"u  c #676668",
"i  c #696669",
"p  c #6B686B",
"a  c #706C6F",
"s  c #716E71",
"d  c #757274",
"f  c #777578",
"g  c #797678",
"h  c #7D797C",
"j  c #817C7F",
"k  c #838283",
"l  c #898487",
"z  c #8D8B8B",
"x  c #908C8E",
"c  c #928D91",
"v  c #949194",
"b  c #989397",
"n  c #999599",
"m  c #9C9A9C",
"M  c #A09D9F",
"N  c #A29FA1",
"B  c #A5A2A4",
"V  c #A9A5A7",
"C  c #AAA5A9",
"Z  c #AEA9AC",
"A  c #B0ABAE",
"S  c #AFADB0",
"D  c #B2AEB1",
"F  c #B9B5B9",
"G  c #BBB8BC",
"H  c #C0BBBF",
"J  c #C1BCBE",
"K  c #C1BCC1",
"L  c #C2BDC1",
"P  c #C3BEC2",
"I  c #C1BEC0",
"U  c #C4C1C5",
"Y  c #C5C2C6",
"T  c #C8C6C9",
"R  c #CCC9CC",
"E  c #CFCBCF",
"W  c #CDC9CE",
"Q  c #D0CECF",
"!  c #D2CDD2",
"~  c #D6D2D6",
"^  c #D7D2D8",
"/  c #D8D3D8",
"(  c #DAD5DA",
")  c #DBD5DB",
"_  c #DEDADE",
"`  c #DFDBDF",
"'  c #E1DCE1",
"]  c #E4DFE5",
"[  c #E6E1E6",
"{  c #E5E0E5",
"}  c #E8E7E7",
"|  c #E7E2E8",
" . c #EAE5EA",
".. c #EAE6EA",
"X. c #EEE9ED",
"o. c #EEEAEE",
"O. c #F0EBEE",
"+. c #F1ECF2",
"@. c #F2EFF2",
"#. c #F5F1F5",
"$. c #F5F2F5",
"%. c #F6F1F6",
"&. c #F6F1F7",
"*. c #F7F1F7",
"=. c #F6F3F6",
"-. c #F6F2F7",
";. c #F7F2F7",
":. c #F6F1F6",
">. c #F8F3F7",
",. c #F7F2F8",
"<. c #F7F3F8",
"1. c #F7F3F8",
"2. c #F8F3F8",
"3. c #F8F2F9",
"4. c #F8F3F9",
"5. c #F9F5F9",
"6. c #F9F4FA",
"7. c #F9F5FA",
"8. c #FAF4FA",
"9. c #FAF5FA",
"0. c #FBF7FB",
"q. c #FBF6FC",
"w. c #FCF6FC",
"e. c #FCF7FC",
"r. c #F9F5FA",
"t. c #FDF8FE",
"y. c #FFFAFF",
"u. c #FFFBFF",
"i. c #FFFDFF",
"p. c #FFFEFF",
"a. c white",
"s. c #FEFAFE",
/* pixels */
"%.%.%.%.%.,.%.%.%.%.%.%.%.,.%.%.%.%.%.%.%.%.%.%.%.%.%.%.%.%.%.%.%.>.H C V V V C C C ",
"%.,.%.%.%.%.%.%.%.%.%.%.%.,.,.,.6.%.8.=.,.%.6.6.%.6.,.,.%.%.%.,.%.6.J V V V C C C C ",
"%.%.%.%.%.%.%.%.%.%.%.,.( 7 6 6 6 6 6 6 6 6 6 6 6 6 6 5 Y 8.o.L L L e & 5 V V V C C ",
"%.%.%.%.%.%.%.%.%.%.q.s.!                               D p.O.Z Z A &   # V V V C C ",
"%.%.%.%.%.%.%.%.%.8.Z x f                               u c l t t r 6 3 0 V V V N C ",
"%.%.%.%.%.%.%.%.=.8.3                                               h A Z V V V C C ",
"%.%.%.%.%.%.%.%.%.8.3                                               h D Z Z Z A Z Z ",
"%.%.%.%.%.%.%.%.%.8.3           & < , < , 2 @   X , < 2 , < ;       6 p p p p i p p ",
"%.%.%.%.%.%.%.6.,.q.3           j A Z Z C A *   $ V Z Z Z A z                       ",
"%.%.%.%.%.%.+./ ^ ( 6 @ @       y b b V C A < @ & B V V V V x $ @ # @ # @           ",
"%.%.%.%.%.,.E + X X f B k       . . % B C C M M B V V V Z V V M M M M M k .         ",
"%.%.%.%.,.6.R .     g Z z           $ B V C V V V V V Z C V V V C V C C z           ",
"%.%.%.,.[ ' F .     g A x @ o o o o & B V V C V V n n n N C C C C V C Z z .     @ @ ",
"%.%.%.8.9 X X       g Z V m M M M n M C C C C Z x o X X h Z C C C V C C z       N ..",
"%.%.%.8.3           g Z V C C C C C C C C V V Z z       g A C C Z V V Z z       D s.",
"%.%.%.8.4           g Z V V V C C V C C V Z 8 * &       % - - - - - - * &       D w.",
"%.%.%.8.4           g Z V V V V C V V C V Z &                                   S s.",
"%.%.%.6.3           g A Z V Z Z Z V V C V Z *                                   Z w.",
"%.%.,.6.G N N N V N 0 : > > > : l Z V V V Z j a s s s a a d e           # N B B _ ,.",
"%.%.,.,.s.p.p.p.p.p.3           g A Z Z Z A A D A A A A A D v           % =.8.0.6.%.",
"%.%.%.6.D b n n b n &           6 p a x x c d i a x x v d i 9       3 r g +.$.%.%.%.",
"%.%.%.8.3                           o t y i $   + t y i $           Z p.5.$.$.%.%.%.",
"%.%.%.8.3                           @ t y p $   @ t i i $           S q.=.,.%.%.%.%.",
"%.%.%.8.3           & > *           @ t i i $   @ t i p $   . % % $ F 8.%.,.%.%.%.%.",
"%.%.%.8.4           g D z           @ t u p $   O t t p $   @ t i t E 5.=.=.,.%.%.%.",
"%.%.%.8.4     @ @ @ h Z x @ @ @ X X $ t u i * # % t p p & . $ t u t E <.%.%.%.%.[ _ ",
"%.%.%.8.3   $ n m m N C V m m M d r t t i u I } Q p i i t r t t i t R 8.%.%.%.8.9 X ",
"%.%.%.q.3   $ V V C C V Z C C C h u p i p t W 8.' p i i u u p u i t W 8.%.<.%.q.3   ",
"%.%.,.8.9 X & V C C C C C m m m f u i p i u Y o.~ p i i i i i i i u Y o...] ] | 3   ",
"%.%.%.,.[ ` ~ V C C C C c @ @ X 6 p i u i u d f d i i i i i i i i i d f t # # # .   ",
",.6.6.6.8.q...Z C C V Z z       6 p p u i i i u u i i i i i i i i i i i 9           ",
"/ 8 8 8 8 8 0 h j j j j i       # % = u i i i i i i i i i i i i i i i i 0           ",
"T           X t u y t i 9           @ t i i p i i i i i i i u i i i i i 0           ",
"T .         @ t i i i i 9           @ t p p p p p i i i i i i u i i i i 0           ",
"Y .         @ t u i i i t 3 3 3 @   . % & % % % ; u i i i i i u i i i i 9           ",
"T .         @ t i i i i y p i i $               . r t t t t t t r t t t 9           ",
"T .         @ t i i i i i i i i > % & 9 0 0 9 9 t v m m m m m n m m n n x q 0 0 0 0 ",
"T           O t i i i i i i i i u u k $.5.5.<.<.5.=.=.<.$.$.<.,.6.6.6.6.<.8.5.<.=.8.",
"T           X t t t t u t t t t t t h @.$.$.%.%.$.%.%.%.$.#.#.,.&.&.&.@.<.%.%.%.=.%.",
"T .     : 6 q c b c c b c b c c v v B $.$.$.%.%.$.%.%.%.$.#.,.#.&.&.&.&.%.%.%.%.%.%.",
"Y .     D w.>.*.,.,.6.@.6.6.*.*.%.,.,.%.%.%.%.%.%.%.%.%.%.%.%.%.%.%.%.%.%.%.%.%.%.%.",
"T .     D w.@.*.,.@.6.@.@.3.6.@.%.%.%.,.%.%.%.%.%.%.%.%.%.%.%.%.%.%.%.%.%.%.%.%.%.%."
};
