/* XPM */
static char *xpm_[] = {
/* columns rows colors chars-per-pixel */
"42 42 256 2 ",
"   c black",
".  c #010101",
"X  c #020202",
"o  c gray1",
"O  c #040404",
"+  c gray2",
"@  c #060606",
"#  c #070707",
"$  c gray3",
"%  c #090909",
"&  c gray4",
"*  c #0B0B0B",
"=  c #0C0C0C",
"-  c gray5",
";  c #0E0E0E",
":  c gray6",
">  c #101010",
",  c #111111",
"<  c gray7",
"1  c #131313",
"2  c gray8",
"3  c #151515",
"4  c #161616",
"5  c gray9",
"6  c #181818",
"7  c #191919",
"8  c gray10",
"9  c #1B1B1B",
"0  c gray11",
"q  c #1D1D1D",
"w  c #1E1E1E",
"e  c gray12",
"r  c #202020",
"t  c gray13",
"y  c #222222",
"u  c #232323",
"i  c gray14",
"p  c #252525",
"a  c gray15",
"s  c #272727",
"d  c #282828",
"f  c gray16",
"g  c #2A2A2A",
"h  c gray17",
"j  c #2C2C2C",
"k  c #2D2D2D",
"l  c gray18",
"z  c #2F2F2F",
"x  c gray19",
"c  c #313131",
"v  c #323232",
"b  c gray20",
"n  c #343434",
"m  c #353535",
"M  c gray21",
"N  c #373737",
"B  c gray22",
"V  c #393939",
"C  c #3A3A3A",
"Z  c gray23",
"A  c #3C3C3C",
"S  c gray24",
"D  c #3E3E3E",
"F  c #3F3F3F",
"G  c gray25",
"H  c #414141",
"J  c gray26",
"K  c #434343",
"L  c #444444",
"P  c gray27",
"I  c #464646",
"U  c gray28",
"Y  c #484848",
"T  c #494949",
"R  c gray29",
"E  c #4B4B4B",
"W  c #4C4C4C",
"Q  c gray30",
"!  c #4E4E4E",
"~  c gray31",
"^  c #505050",
"/  c #515151",
"(  c gray32",
")  c #535353",
"_  c gray33",
"`  c #555555",
"'  c #565656",
"]  c gray34",
"[  c #585858",
"{  c gray35",
"}  c #5A5A5A",
"|  c #5B5B5B",
" . c gray36",
".. c #5D5D5D",
"X. c gray37",
"o. c #5F5F5F",
"O. c #606060",
"+. c gray38",
"@. c #626262",
"#. c gray39",
"$. c #646464",
"%. c #656565",
"&. c gray40",
"*. c #676767",
"=. c #686868",
"-. c DimGray",
";. c #6A6A6A",
":. c gray42",
">. c #6C6C6C",
",. c #6D6D6D",
"<. c gray43",
"1. c #6F6F6F",
"2. c gray44",
"3. c #717171",
"4. c #727272",
"5. c gray45",
"6. c #747474",
"7. c gray46",
"8. c #767676",
"9. c #777777",
"0. c gray47",
"q. c #797979",
"w. c gray48",
"e. c #7B7B7B",
"r. c #7C7C7C",
"t. c gray49",
"y. c #7E7E7E",
"u. c gray50",
"i. c #808080",
"p. c #818181",
"a. c gray51",
"s. c #838383",
"d. c #848484",
"f. c gray52",
"g. c #868686",
"h. c gray53",
"j. c #888888",
"k. c #898989",
"l. c gray54",
"z. c #8B8B8B",
"x. c gray55",
"c. c #8D8D8D",
"v. c #8E8E8E",
"b. c gray56",
"n. c #909090",
"m. c gray57",
"M. c #929292",
"N. c #939393",
"B. c gray58",
"V. c #959595",
"C. c gray59",
"Z. c #979797",
"A. c #989898",
"S. c gray60",
"D. c #9A9A9A",
"F. c #9B9B9B",
"G. c gray61",
"H. c #9D9D9D",
"J. c gray62",
"K. c #9F9F9F",
"L. c #A0A0A0",
"P. c gray63",
"I. c #A2A2A2",
"U. c gray64",
"Y. c #A4A4A4",
"T. c #A5A5A5",
"R. c gray65",
"E. c #A7A7A7",
"W. c gray66",
"Q. c #A9A9A9",
"!. c #AAAAAA",
"~. c gray67",
"^. c #ACACAC",
"/. c gray68",
"(. c #AEAEAE",
"). c #AFAFAF",
"_. c gray69",
"`. c #B1B1B1",
"'. c #B2B2B2",
"]. c gray70",
"[. c #B4B4B4",
"{. c gray71",
"}. c #B6B6B6",
"|. c #B7B7B7",
" X c gray72",
".X c #B9B9B9",
"XX c gray73",
"oX c #BBBBBB",
"OX c #BCBCBC",
"+X c gray74",
"@X c gray",
"#X c gray75",
"$X c #C0C0C0",
"%X c #C1C1C1",
"&X c gray76",
"*X c #C3C3C3",
"=X c gray77",
"-X c #C5C5C5",
";X c #C6C6C6",
":X c gray78",
">X c #C8C8C8",
",X c gray79",
"<X c #CACACA",
"1X c #CBCBCB",
"2X c gray80",
"3X c #CDCDCD",
"4X c #CECECE",
"5X c gray81",
"6X c #D0D0D0",
"7X c gray82",
"8X c #D2D2D2",
"9X c LightGray",
"0X c gray83",
"qX c #D5D5D5",
"wX c gray84",
"eX c #D7D7D7",
"rX c #D8D8D8",
"tX c gray85",
"yX c #DADADA",
"uX c gray86",
"iX c gainsboro",
"pX c #DDDDDD",
"aX c gray87",
"sX c #DFDFDF",
"dX c gray88",
"fX c #E1E1E1",
"gX c #E2E2E2",
"hX c gray89",
"jX c #E4E4E4",
"kX c gray90",
"lX c #E6E6E6",
"zX c #E7E7E7",
"xX c gray91",
"cX c #E9E9E9",
"vX c #EAEAEA",
"bX c gray92",
"nX c #ECECEC",
"mX c gray93",
"MX c #EEEEEE",
"NX c #EFEFEF",
"BX c gray94",
"VX c #F1F1F1",
"CX c gray95",
"ZX c #F3F3F3",
"AX c #F4F4F4",
"SX c gray96",
"DX c #F6F6F6",
"FX c gray97",
"GX c #F8F8F8",
"HX c #F9F9F9",
"JX c gray98",
"KX c #FBFBFB",
"LX c gray99",
"PX c #FDFDFD",
"IX c #FEFEFE",
"UX c white",
/* pixels */
"GXGXGXGXGXGXGXGXGXGXGXGXGXGXGXGXGXGXGXGXGXGXGXGXGXGXGXGXGXGXGXGXGXGXGXGXGXGXGXGXGXGX",
"GXGXGXGXGXGXGXGXGXGXGXGXGXGXGXGXGXGXGXGXGXGXGXGXGXGXGXGXGXGXGXGXGXGXGXGXGXGXGXGXGXGX",
"GXGXGXGXGXGXGXGXGXGXGXGXGXGXGXGXGXGXGXGXGXGXGXGXGXGXGXGXGXGXGXGXGXGXGXGXGXGXGXGXGXGX",
"GXGXGXGXGXGXGXGXGXGXGXGXHXHXHXHXHXHXHXHXHXHXGXGXGXGXGXGXGXGXGXGXGXGXGXGXGXGXGXGXGXGX",
"GXGXGXGXGXGXGXGXGXHXLXUXUXUXUXUXUXUXUXUXUXUXUXPXHXGXGXGXGXGXGXGXGXGXGXGXGXGXGXGXGXGX",
"GXGXGXGXGXGXGXGXGXDXCXmXbXbXnXnXnXnXnXnXbXbXmXVXDXGXGXGXGXGXGXGXGXGXGXGXGXGXGXGXGXGX",
"GXGXGXGXGXGXGXIXUXVX;XF.k.k.x.x.x.x.x.x.l.j.Z.$XnXUXIXHXGXGXGXGXGXGXGXGXGXGXGXGXGXGX",
"GXGXGXGXGXGXGXLXKXtXl.C 7 7 w w w w w w 8 6 b u.7XJXPXGXGXGXGXGXGXGXGXGXGXGXGXGXGXGX",
"GXGXGXGXJXUXJXhX$Xb.E ;                     $ J h.XXdXGXUXKXGXGXGXGXGXGXGXGXGXGXGXGX",
"GXGXGXGXKXUXCX|.&.j > o                     X ; s  ./.MXUXLXGXGXGXGXGXGXGXGXGXGXGXGX",
"GXGXJXGXMXuX X8.d       % 9 i 7 #                 y ,.'.rXnXGXJXGXGXGXGXGXGXGXGXGXGX",
"GXGXPXHX0Xn.^ p $       q / ;.E 4                 % y R h.3XFXIXHXGXGXGXGXGXGXGXGXGX",
"GXGXUXJX=X+.,   > 8 5 q H r.S.8.Z 9 5 8 1 $ .         & ' XXGXUXHXGXGXGXGXGXGXGXGXGX",
"GXGXUXJX&X} : 4 U *.>.,.u.S.R.C.e.,.>.%.Y e X         + ` @XIXUXJXGXGXGXGXGXGXGXGXGX",
"GXGXUXJX&X..6 c 8.L.P.Z.S.P.R.L.A.A.I.J.5.c O         & ! W.hXSXDXHXHXGXGXGXGXGXGXGX",
"GXGXUXJX&X .7 M i.L.s.o.*.z.J.g.#.@.j.P.t.M O         + s ] k.+XxXKXKXGXGXGXGXGXGXGX",
"GXGXUXJX&X..6 M t.N.X.d N 8.Z.<.c j *.V.w.m O         . . $ x g.yXIXIXGXGXGXGXGXGXGX",
"GXGXUXJX%X[ < z w.S.8.! } j.P.a.` / e.D.q.n O               8 e.pXUXUXGXGXGXGXGXGXGX",
"GXGXUXJX*X..7 b w.Y.P.B.C.K.T.J.V.V.I.I.9.b O               e e.eXIXIXGXGXGXGXGXGXGX",
"GXGXPXHX9Xv...&.c.E.`.).L.f.9.j.U.'.}.W.0.b O               4 ) V.*XfXSXKXHXGXGXGXGX",
"GXGXJXGXmXrX=X}.^.W.(.~.j.! c _ b.).|.W.0.b O               @ 2 c -.}.NXUXJXGXGXGXGX",
"HXHXGXGXJXPXJXxX4X{.K.j.&.D j L >.s.k.u.} p                       Z L.mXUXKXGXGXGXGX",
"KXJXHXGXHXLXLXHXNX2Xg.U A ] -.[ S z x z r %                       Z L.mXUXKXGXGXGXGX",
"nXMXCXDXHXJXFXDXmX>X0.n C 8.A.6.B 4 - : 3 w e 2 +               . D P.mXUXKXGXGXGXGX",
":X4XaXCXPXUXFXpX.XS.e.-.6.V.E.B.5.[ J C ) y.g.) 1       .         B J.mXUXKXGXGXGXGX",
"W.'.<XlXSXHXnX$Xj.<.r.V.K.I.I.I.K.n.6.&.h.$X2Xz.N * . .     . . < Q Q.MXUXKXGXGXGXGX",
"P.E.{.:X7XwX2XR.7.O.<.d.z.j.g.j.l.s.3.*.w.G./.P.d...f       $ n -.G.5XCXPXHXGXGXGXGX",
"!.~./._.'.].^.B.7.#.@.&.*.*.&.*.*.&.$.#.$.=.e.~.6X}.+.4     i 6.;XmXDXFXHXGXGXGXGXGX",
":X:X:X-X+X`.U.B.d.8.-.o.| | | } | +.,.0.0.6.f.oXMXkXT.:.' { 7._.nXUXUXGXGXGXGXGXGXGX",
"bXbXmXbXpX&X~.U.L.B.t.*.X.X.o.X.X.;.p.Z.G.D.T.:XbXZXjX0X4X5XwXkXAXJXJXGXGXGXGXGXGXGX",
"JXJXLXKXMXeX*X$X&X|.G.i.6.6.8.7.7.u.B.R./.^.)..X;XrXMXIXUXUXIXLXHXGXGXGXGXGXGXGXGXGX",
"HXHXJXHXSXmXlXlXzXiX#XI.C.C.A.A.A.F.I.Q.^.^.E.C.l.J.4XFXUXUXKXJXGXGXGXGXGXGXGXGXGXGX",
"GXGXGXGXGXHXHXLXPXMX1XE.A.A.F.F.F.F.D.D.F.G.B.e.*.8.R.9XcXAXHXJXGXGXGXGXGXGXGXGXGXGX",
"GXGXGXGXGXHXJXUXUXMX+Xz.8.9.w.w.w.w.q.0.q.q.7.;.+.&.q.B.XXhXLXIXHXGXGXGXGXGXGXGXGXGX",
"GXGXGXGXGXHXFXSXMX0XU.4...X.+.+.+.+.+.+.+.+.+.O.O.o. .*.b.=XzXAXFXHXHXGXGXGXGXGXGXGX",
"GXGXGXGXHXKXAXiXXXD.t.&. . .X.X.X.X.X.X.X.X.X.o.O.X.| o.3.v.(.9XCXIXLXGXGXGXGXGXGXGX",
"GXGXGXGXJXPXCX;Xx.=.o.O.O.O.O.O.O.O.O.O.O.O.O.O.O.O.O.O.o.@.q.~.pXAXGXGXGXGXGXGXGXGX",
"GXGXGXGXJXIXVX%Xa. .[ o.O.O.O.O.O.O.O.O.O.O.O.O.O.O.O.O. .} &.s.E.:XkXHXIXJXGXGXGXGX",
"GXGXGXGXJXPXVX*Xg.+.| o.O.O.O.O.O.O.O.O.O.O.O.O.O.O.O.O.o.o.+.#.1.M.:XNXKXHXGXGXGXGX",
"GXGXGXGXJXPXVX*Xg.+.| o.O.O.O.O.O.O.O.O.O.O.O.O.O.O.O.O.O.O.o.}  .5.D.@XtXmXGXJXGXGX",
"GXGXGXGXJXPXVX*Xg.+.| o.O.O.O.O.O.O.O.O.O.O.O.O.O.O.O.O.O.O.O.X.o.$.,.a.(.aXHXLXGXGX",
"GXGXGXGXJXPXVX*Xg.+.| o.O.O.O.O.O.O.O.O.O.O.O.O.O.O.O.O.O.O.O.O.O. .] %.S.eXHXPXGXGX"
};
