/* XPM */
static char *xpm_[] = {
/* columns rows colors chars-per-pixel */
"42 42 138 2 ",
"   c black",
".  c gray2",
"X  c #060606",
"o  c #070707",
"O  c gray3",
"+  c #090909",
"@  c #0C0C0C",
"#  c gray5",
"$  c #101010",
"%  c gray7",
"&  c #131313",
"*  c #151515",
"=  c #161616",
"-  c gray9",
";  c #181818",
":  c #191919",
">  c gray10",
",  c #1B1B1B",
"<  c #1E1E1E",
"1  c gray12",
"2  c #202020",
"3  c gray13",
"4  c #222222",
"5  c #232323",
"6  c #252525",
"7  c gray15",
"8  c #2C2C2C",
"9  c gray18",
"0  c #2F2F2F",
"q  c gray20",
"w  c #343434",
"e  c gray21",
"r  c gray25",
"t  c #464646",
"y  c gray28",
"u  c #484848",
"i  c #4E4E4E",
"p  c #515151",
"a  c gray32",
"s  c #585858",
"d  c gray35",
"f  c #5F5F5F",
"g  c #676767",
"h  c #6D6D6D",
"j  c #6F6F6F",
"k  c gray44",
"l  c gray45",
"z  c gray46",
"x  c #767676",
"c  c #777777",
"v  c #797979",
"b  c gray49",
"n  c #7E7E7E",
"m  c gray50",
"M  c #808080",
"N  c #818181",
"B  c #838383",
"V  c #848484",
"C  c #868686",
"Z  c #888888",
"A  c #898989",
"S  c gray54",
"D  c #8B8B8B",
"F  c #8D8D8D",
"G  c #909090",
"H  c #929292",
"J  c gray58",
"K  c #959595",
"L  c gray59",
"P  c gray60",
"I  c #9A9A9A",
"U  c gray62",
"Y  c #9F9F9F",
"T  c gray65",
"R  c #A7A7A7",
"E  c #A9A9A9",
"W  c #AAAAAA",
"Q  c gray67",
"!  c #ACACAC",
"~  c gray68",
"^  c #AEAEAE",
"/  c #AFAFAF",
"(  c gray69",
")  c #B1B1B1",
"_  c gray72",
"`  c gray73",
"'  c #BBBBBB",
"]  c #BCBCBC",
"[  c gray74",
"{  c gray",
"}  c gray75",
"|  c #C0C0C0",
" . c #C1C1C1",
".. c #C3C3C3",
"X. c gray77",
"o. c #C6C6C6",
"O. c #CBCBCB",
"+. c gray80",
"@. c #CDCDCD",
"#. c #CECECE",
"$. c #D0D0D0",
"%. c gray82",
"&. c #D2D2D2",
"*. c gray83",
"=. c #D5D5D5",
"-. c gray84",
";. c #D7D7D7",
":. c #D8D8D8",
">. c gray85",
",. c #DADADA",
"<. c gray86",
"1. c gainsboro",
"2. c #DDDDDD",
"3. c gray87",
"4. c #DFDFDF",
"5. c gray88",
"6. c #E1E1E1",
"7. c #E2E2E2",
"8. c gray89",
"9. c #E4E4E4",
"0. c gray90",
"q. c #E6E6E6",
"w. c #E7E7E7",
"e. c gray91",
"r. c #EAEAEA",
"t. c #ECECEC",
"y. c #EEEEEE",
"u. c #EFEFEF",
"i. c #F1F1F1",
"p. c gray95",
"a. c #F8F8F8",
"s. c #F9F9F9",
"d. c gray98",
"f. c #FBFBFB",
"g. c gray99",
"h. c #FEFEFE",
"j. c white",
"k. c None",
/* pixels */
"k.k.k.k.k.k.k.k.k.k.k.k.k.k.k.k.k.k.k.k.k.k.k.k.k.k.k.k.k.k.k.k.k.k.k.k.k.k.k.k.k.k.",
"k.k.k.k.k.k.k.k.k.k.k.k.k.k.k.k.                    k.k.k.k.k.k.k.k.k.k.k.k.k.k.k.k.",
"k.k.k.k.k.k.k.k.k.k.k.k.k.k.k.k.                    k.k.k.k.k.k.k.k.k.k.k.k.k.k.k.k.",
"k.k.k.k.k.k.k.k.k.k.k.k.      3 B D D D D D D D D v #       k.k.k.k.k.k.k.k.k.k.k.k.",
"k.k.k.k.k.k.k.k.k.k.k.        7 e.j.j.j.j.j.j.j.j.O.#         k.k.k.k.k.k.k.k.k.k.k.",
"k.k.k.k.k.k.k.k.k.k.k.7 7 7 3 u 9.s.a.a.a.a.a.a.s.O.8 1 , , , k.k.k.k.k.k.k.k.k.k.k.",
"k.k.k.k.k.k.k.k.k.  3 #.e.9.9.9.1.,.,.,.,.,.,.,.,.-.X. .T P z X   k.k.k.k.k.k.k.k.k.",
"k.k.k.k.k.k.k.k.k.  3 6.j.j.j.s.,.-.-.-.-.&.-.-.-.-.-.-.` E B X   k.k.k.k.k.k.k.k.k.",
"k.k.k.k.k.k.k.k.k.  3 6.j.p.e.9.1.,.9.e.u.e.u.6.1.,.-.-._ E B X   k.k.k.k.k.k.k.k.k.",
"k.k.k.k.k.k.k.k.k.  1 6.j.e.-.-.6.6.a.j.j.j.j.u.9.6.-.-._ E b X   k.k.k.k.k.k.k.k.k.",
"k.k.k.k.k.k.k.k.3 3 r 6.s.e.,.,.9.e.p.s.s.s.j.-. .X.,.,.[ ) D 1 , k.k.k.k.k.k.k.k.k.",
"k.k.k.k.k.k.    v e.9.,.,.1.6.9.s.j.p.9.9.9.9.g $ r -.6.-.&. .P J e     k.k.k.k.k.k.",
"k.k.k.k.k.k.    b j.s.,.-.1.6.e.s.j.u.1.6.6.9.d   8 -.9.,.,.O.E E e     k.k.k.k.k.k.",
"k.k.k.k.k.k.    b j.s.,.-.1.6.e.j.j.u.6.9.6.6.d   8 -.9.,.-.#.E T e     k.k.k.k.k.k.",
"k.k.k.k.k.k.    b j.s.1.-.1.6.9.s.j.u.6.9.6.9.d   q -.6.,.-.O.E T e     k.k.k.k.k.k.",
"k.k.k.k.k.k.    b j.s.,.-.1.6.e.s.j.u.6.6.6.9.d   8 -.6.,.-.O.E T e     k.k.k.k.k.k.",
"k.k.k.k.k.k.    b j.s.,.,.1.6.e.j.j.u.6.9.6.9.d   8 -.6.1.-.O.E T e     k.k.k.k.k.k.",
"k.k.k.k.k.k.    b j.s.1.-.1.6.9.s.j.u.6.6.6.9.d   q -.6.,.-.#.E T e     k.k.k.k.k.k.",
"k.k.k.k.k.k.    b j.s.,.-.,.6.e.s.j.u.6.6.9.9.d   q -.6.,.-.O.E T e     k.k.k.k.k.k.",
"k.k.k.k.k.k.    b j.s.1.-.1.6.e.s.j.u.6.6.6.9.d   8 -.6.,.-.#.E T e     k.k.k.k.k.k.",
"k.k.k.k.k.k.    b j.s.,.-.1.6.9.s.j.u.6.6.6.6.d   q -.6.,.-.O.E T e     k.k.k.k.k.k.",
"k.k.k.k.k.k.    b j.s.1.-.1.6.e.s.j.u.6.6.6.9.d   8 -.9.,.-.O.E T e     k.k.k.k.k.k.",
"k.k.k.k.k.k.    b j.s.,.-.,.6.e.j.j.u.6.6.6.9.d   8 -.6.,.-.O.E T e     k.k.k.k.k.k.",
"k.k.k.k.k.k.    b j.s.1.,.1.6.9.s.j.u.6.9.6.9.d   q -.6.,.-.#.E T e     k.k.k.k.k.k.",
"k.k.k.k.k.k.    b j.s.1.-.1.6.e.s.j.u.6.6.6.9.d   8 -.6.,.-.#.E T e     k.k.k.k.k.k.",
"k.k.k.k.k.k.    b j.s.,.-.1.9.9.s.j.u.6.9.6.9.d   q -.6.,.-.#.E T e     k.k.k.k.k.k.",
"k.k.k.k.k.k.    b j.s.1.-.1.6.e.j.j.u.6.6.6.6.d   q -.6.,.-.O.E T e     k.k.k.k.k.k.",
"k.k.k.k.k.k.    b j.s.,.-.1.6.9.s.j.p.6.6.9.9.d   8 -.6.,.-.O.E T e     k.k.k.k.k.k.",
"k.k.k.k.k.k.    b j.s.1.,.1.9.9.s.j.u.1.6.6.9.d   q -.6.,.-.O.E T e     k.k.k.k.k.k.",
"k.k.k.k.k.k.    b j.s.1.-.1.6.e.j.j.u.9.9.9.9.d   8 -.9.,.,.#.E T e     k.k.k.k.k.k.",
"k.k.k.k.k.k.    z 1.1.-.-.1.6.9.a.j.,.X.X.X.X.f , t -.6.-.&. .J H q     k.k.k.k.k.k.",
"k.k.k.k.k.k.k.k., , q  .-.1.6.6.9.9.k = = = , B #.O.-.-.` ~ C , $ k.k.k.k.k.k.k.k.k.",
"k.k.k.k.k.k.k.k.k.  , [ -.,.6.6.6.9.g         D 9.6.-.-._ E b X   k.k.k.k.k.k.k.k.k.",
"k.k.k.k.k.k.k.k.k.  , [ ,.,.1.1.1.1.P h k h h ) 1.,. .[ ) E B X   k.k.k.k.k.k.k.k.k.",
"k.k.k.k.k.k.k.k.k.  ,  .,.,.,.-.-.-.,.,.,.,.,.,.,.#.~ E E ~ B +   k.k.k.k.k.k.k.k.k.",
"k.k.k.k.k.k.k.k.k.  , T ` ` ` [ #.&.#.&.&.#.&.#.&. .J H H J k +   k.k.k.k.k.k.k.k.k.",
"k.k.k.k.k.k.k.k.k.k.k., = , = 8 Y ~ ~ ~ ~ ~ ~ ~ ~ F , $ = $ $ k.k.k.k.k.k.k.k.k.k.k.",
"k.k.k.k.k.k.k.k.k.k.k.        = P ~ E E ~ E E E ~ C +         k.k.k.k.k.k.k.k.k.k.k.",
"k.k.k.k.k.k.k.k.k.k.k.k.k.k.k.= i p p p p p p p p u + k.k.k.k.k.k.k.k.k.k.k.k.k.k.k.",
"k.k.k.k.k.k.k.k.k.k.k.k.k.k.k.k.                    k.k.k.k.k.k.k.k.k.k.k.k.k.k.k.k.",
"k.k.k.k.k.k.k.k.k.k.k.k.k.k.k.k.                    k.k.k.k.k.k.k.k.k.k.k.k.k.k.k.k.",
"k.k.k.k.k.k.k.k.k.k.k.k.k.k.k.k.k.k.k.k.k.k.k.k.k.k.k.k.k.k.k.k.k.k.k.k.k.k.k.k.k.k."
};
