/* XPM */
static char *xpm_[] = {
/* columns rows colors chars-per-pixel */
"42 42 156 2 ",
"   c #0E0D0D",
".  c #10100F",
"X  c #00181B",
"o  c #131313",
"O  c #171918",
"+  c #1A1D1C",
"@  c #1B1715",
"#  c #1E211F",
"$  c #2B241F",
"%  c #001E22",
"&  c #001F3A",
"*  c #00203D",
"=  c #2B2A26",
"-  c #42362D",
";  c #4B3D32",
":  c #5C493B",
">  c #00274B",
",  c #243E41",
"<  c #003261",
"1  c #003970",
"2  c #344A4D",
"3  c #5B4E42",
"4  c #405659",
"5  c #765F4B",
"6  c #54686B",
"7  c #617376",
"8  c #C33B51",
"9  c #866E59",
"0  c #926F59",
"q  c #987A62",
"w  c #A87D67",
"e  c #C64456",
"r  c #D15F64",
"t  c #D36366",
"y  c #9B827C",
"u  c #AA876B",
"i  c #A7876C",
"p  c #B38F71",
"a  c #BD9878",
"s  c #B99476",
"d  c #C29B7B",
"f  c #FBAA70",
"g  c #FCB27C",
"h  c #004D9E",
"j  c #004A95",
"k  c #3D6796",
"l  c #004FA0",
"z  c #0151A2",
"x  c #0B58A6",
"c  c #125EA9",
"v  c #155DA6",
"b  c #1F64AA",
"n  c #2066AF",
"m  c #2465A8",
"M  c #386EA7",
"N  c #276CB1",
"B  c #296BB1",
"V  c #3473B3",
"C  c #3D7AB8",
"Z  c #6B7C82",
"A  c #4875A4",
"S  c #447EBB",
"D  c #748388",
"F  c #7E8C91",
"G  c #78889E",
"H  c #4C85BE",
"J  c #4A80B8",
"K  c #5286BC",
"L  c #5589BF",
"P  c #6E88A5",
"I  c #7F92AE",
"U  c #668DB6",
"Y  c #578CC3",
"T  c #6493C5",
"R  c #6494CA",
"E  c #6E9ACD",
"W  c #719DCF",
"Q  c #749FD0",
"!  c #7DA5D3",
"~  c #918282",
"^  c #89969A",
"/  c #979C9F",
"(  c #8F96A2",
")  c #99A4A8",
"_  c #BCABA2",
"`  c #A4AEB0",
"'  c #ADB6BC",
"]  c #B2BABC",
"[  c #DF9D81",
"{  c #EC9D86",
"}  c #CDA482",
"|  c #D9A986",
" . c #EFA087",
".. c #FFAB8F",
"X. c #F3A98B",
"o. c #E1B18D",
"O. c #E9B08C",
"+. c #FDB986",
"@. c #FBB787",
"#. c #E5AC90",
"$. c #FFAE92",
"%. c #E8BA93",
"&. c #E1B899",
"*. c #FFB594",
"=. c #F7BF97",
"-. c #FEBA96",
";. c #FFBD98",
":. c #F4B090",
">. c #CBB2A0",
",. c #C7B8AF",
"<. c #C5B3A7",
"1. c #DBBCA3",
"2. c #D3BBAA",
"3. c #E8BDA2",
"4. c #FEC08F",
"5. c #EDC29F",
"6. c #F7C69D",
"7. c #FEC49B",
"8. c #FFCA9E",
"9. c #FFC491",
"0. c #F6C7A1",
"q. c #FECCA1",
"w. c #F3CBAA",
"e. c #FFD0A4",
"r. c #EAC9B0",
"t. c #89ADD9",
"y. c #89ADD5",
"u. c #8EB0DB",
"i. c #98B7DF",
"p. c #99B8DF",
"a. c #93B4DA",
"s. c #A9B6CD",
"d. c #B3BCC1",
"f. c #A9BFD9",
"g. c #96B7E0",
"h. c #9ABAE2",
"j. c #BAC2C4",
"k. c #BCC7DB",
"l. c #A6C1E5",
"z. c #ACC5E7",
"x. c #ADC6E8",
"c. c #B2C6E3",
"v. c #B1C9E9",
"b. c #B5CBE3",
"n. c #CDD2D5",
"m. c #D2D7DB",
"M. c #D6DBDE",
"N. c #D9DDDF",
"B. c #DBDFE3",
"V. c #DDE1E2",
"C. c #E6E9EB",
"Z. c #E8EBEC",
"A. c #EFF1F2",
"S. c #F2F3F4",
"D. c #FDFDFD",
"F. c None",
/* pixels */
"F.F.F.F.F.F.F.F.F.F.F.F.F.F.F.F.F.F.F.F.F.F.F.F.F.F.F.F.F.F.F.F.F.F.F.F.F.F.F.F.F.F.",
"F.F.F.F.F.F.F.F.F.F.F.F.F.F.F.F.F.F.+ + .   O + F.F.F.F.F.F.F.F.F.F.F.F.F.F.F.F.F.F.",
"F.F.F.F.F.F.F.F.F.F.F.F.F.F.F.F.  o + +     o + + o F.F.F.F.F.F.F.F.F.F.F.F.F.F.F.F.",
"F.F.F.F.F.F.F.F.F.F.F.F.F.F.F.o   O + O     O + + o F.F.F.F.F.F.F.F.F.F.F.F.F.F.F.F.",
"F.F.F.F.F.F.F.F.F.F.F.F.F.F.+ .   + # o @   + = O .   F.F.F.F.F.F.F.F.F.F.F.F.F.F.F.",
"F.F.F.F.F.F.F.F.F.F.F.F.F.F.+ . - u q 9 a 5 p s 3 i ; F.F.F.F.F.F.F.F.F.F.F.F.F.F.F.",
"F.F.F.F.F.F.F.F.F.F.F.F.F.F.O = | q.q.q.e.8.q.q.6.e.a F.F.F.F.F.F.F.F.F.F.F.F.F.F.F.",
"F.F.F.F.F.F.F.F.F.F.F.F.F.F.o : 6.q.8.p a 8.6.d } q.6.F.F.F.F.F.F.F.F.F.F.F.F.F.F.F.",
"F.F.F.F.F.F.F.F.F.F.F.F.F.F.O 0 7.7.8.| a 8.%.u o.8.8.F.F.F.F.F.F.F.F.F.F.F.F.F.F.F.",
"F.F.F.F.F.F.F.F.F.F.F.F.F.#.w [ *.-.;.q %.q.8.u | -.-.F.F.F.F.F.F.F.F.F.F.F.F.F.F.F.",
"F.F.F.F.F.F.F.F.F.F.F.F.q.7.*.$.....-.=.8.6.7.#.X...$.F.F.F.F.F.F.F.F.F.F.F.F.F.F.F.",
"F.F.F.F.F.F.F.F.F.F.F.F.F.;.-.$.....;.7.8.8.=.7.*.....F.F.F.F.F.F.F.F.F.F.F.F.F.F.F.",
"F.F.F.F.F.F.F.F.F.F.F.F.F.F.F.*.*.-.7.X.r t { 8.;.*.*.F.F.F.F.F.F.F.F.F.F.F.F.F.F.F.",
"F.F.F.F.F.F.F.F.F.F.F.F.F.F.N I 3.8.8.:.e 8 { 8.7.7.F.F.F.F.F.F.F.F.F.F.F.F.F.F.F.F.",
"F.F.F.F.F.F.F.F.F.F.1.L J C V B M G o.9.@.#.1.2._ F.F.F.F.F.F.F.F.F.F.F.F.F.F.F.F.F.",
"F.F.F.F.F.F.F.F.q.q.0.A x l h h h h k y ~ k b V H J F.F.F.F.F.F.F.F.F.F.F.F.F.F.F.F.",
"F.F.F.F.F.F.F.q.e.8.8.P l l l z l l l z z z z l x V H F.F.F.F.F.4.g +.7.F.F.F.F.F.F.",
"F.F.F.F.F.F.8.8.7.7.7./ l l h h l z z z l l z l z l b <.8.F.q.8.+.f @.7.F.F.F.F.F.F.",
"F.F.F.F.F.8.8.8.8.8.F.F.F.h h l h z z h H C T m h h A 5.8.q.8.q.8.g g F.F.F.F.F.F.F.",
"F.F.F.F.F.8.8.8.F.F.F.F.F.h l z h z z z l.a.b.T F.m >.8.8.q.8.8.F.F.F.F.F.F.F.F.F.F.",
"F.F.F.F.8.8.7.F.F.F.F.F.F.l l h h h h z L K y.V F.F.F.F.F.F.F.F.F.F.F.F.F.F.F.F.F.F.",
"F.F.F.F.8.8.8.F.F.F.F.F.F.l l h h h h h l z z h F.F.F.F.F.F.F.F.F.F.F.F.F.F.F.F.F.F.",
"F.F.F.F.8.8.8.F.F.F.F.F.F.l l l h h z z z z h F.F.F.F.F.F.F.F.F.F.F.F.F.F.F.F.F.F.F.",
"F.F.F.F.8.8.F.F.F.F.F.F.h l l l z h l l z z l F.F.F.F.F.F.F.F.F.F.F.F.F.F.F.F.F.F.F.",
"F.F.F.F.F.F.F.F.F.F.F.F.c z l l l z l l l l z F.F.F.F.F.F.F.F.F.F.F.F.F.F.F.F.F.F.F.",
"F.F.F.F.F.F.F.F.F.F.F.F.t.S V B c x z l z z z z F.F.F.F.F.F.F.F.F.F.F.F.F.F.F.F.F.F.",
"F.F.F.F.F.F.F.F.F.F.F.F.F.E t.l.h.t.! E R R Y R F.F.F.F.F.F.F.F.F.F.F.F.F.F.F.F.F.F.",
"F.F.F.F.F.F.F.F.F.F.F.F.F.y.W x.x.x.v.x.v.v.v.x.F.F.F.F.F.F.F.F.F.F.F.F.F.F.F.F.F.F.",
"F.F.F.F.F.F.F.F.F.F.F.F.F.i.R z.x.z.z.i.l.z.x.x.F.F.F.F.F.F.F.F.F.F.F.F.F.F.F.F.F.F.",
"F.F.F.F.F.F.F.F.F.F.F.F.F.t.R a.x.x.z.i.g.z.z.z.F.F.F.F.F.F.F.F.F.F.F.F.F.F.F.F.F.F.",
"F.F.F.F.F.F.F.F.F.F.F.< h n W W c.c.k.f.s.k.n.k.F.F.F.F.F.F.F.F.F.F.F.F.F.F.F.F.F.F.",
"F.F.F.F.F.F.F.F.F.F.& < z z U ,.r.w.w.0.@.0.0.w.F.F.F.F.F.F.F.F.F.F.F.F.F.F.F.F.F.F.",
"F.F.F.F.F.F.F.F.F.F.F.F.F.F.F.8.8.8.8.q.4.7.8.F.F.F.F.F.F.F.F.F.F.F.F Z ] F.F.F.F.F.",
"F.F.F.F.F.F.F.F.F.F.F.F.F.F.F.F.8.8.8.6.5.F.F.F.F.F.F.F.F.F.F.F.B.A.] ` A.C.F.F.F.F.",
"F.F.F.F.F.F.F.F.F.F.F.F.F.F.F.F.6.>.( P L F.F.F.F.F.F.F.F.F.F.M.D.D.C.B.D.D.^ F.F.F.",
"F.F.F.F.F.F.F.F.F.F.F.F.F.F.F.F.F.J Y H B F.F.F.F.F.F.F.F.F.F.D C.n.2 , F Z.j.' F.F.",
"F.F.F.F.F.F.F.F.F.F.F.F.F.F.F.F.F.F.c z z z F.F.F.F.F.F.F.F.F.7 M./ X X 2 S.D.V.F.F.",
"F.F.F.F.F.F.F.F.F.F.F.F.F.F.F.F.F.F.z z z j F.F.F.F.F.F.F.F.F.Z.D.C.7 6 ) S.S.m.F.F.",
"F.F.F.F.F.F.F.F.F.F.F.F.F.F.F.F.F.F.F.j 1 > * * F.F.F.F.F.F.F.V.S.V.A.D.D.j.D F.F.F.",
"F.F.F.F.F.F.F.F.F.F.F.F.F.F.F.F.F.F.F.F.* * * F.F.F.F.F.F.F.F.F.) 6 m.D.S.d.F.F.F.F.",
"F.F.F.F.F.F.F.F.F.F.F.F.F.F.F.F.F.F.F.F.F.F.F.F.F.F.F.F.F.F.F.F.F.F.F.F.F.F.F.F.F.F.",
"F.F.F.F.F.F.F.F.F.F.F.F.F.F.F.F.F.F.F.F.F.F.F.F.F.F.F.F.F.F.F.F.F.F.F.F.F.F.F.F.F.F."
};
